<svg xmlns="http://www.w3.org/2000/svg" shape-rendering="geometricPrecision" text-rendering="geometricPrecision" image-rendering="optimizeQuality" fill-rule="evenodd" clip-rule="evenodd" viewBox="0 0 512 464.91"><path fill-rule="nonzero" d="M49.97 0h339.3c13.74 0 26.22 5.67 35.24 14.7l.84.91c8.58 9 13.88 21.18 13.88 34.37v143.47c-21.17-6.09-43.46-7.64-65.28-4.69l38.4-35.73V49.98c0-5.98-2.38-11.55-6.24-15.71l-.6-.56c-4.19-4.19-9.95-6.83-16.24-6.83H49.97c-12.7 0-23.09 10.38-23.09 23.1v179c29.76-26.84 77.38-64.34 107.46-89.61 4.91-4.25 12.21-4.16 17.03-.04.97.81 1.69 1.79 2.51 2.76l70.06 106.25 25.03-76.21c2.01-10.65 14.57-14.18 22.19-7.1l45.28 43.35c-7.82 4.51-15.21 9.67-22.12 15.41l-23.31-22.37-25.55 79.24c-1.61 11.22-15.53 15.48-23.05 6.83l-80.75-119.04-114.78 96.24v80.16c0 6.3 2.64 12.06 6.83 16.25 4.21 4.21 10.01 6.85 16.26 6.85h188.66c1.26 9.21 3.42 18.05 6.22 26.88H49.97c-13.66 0-26.19-5.65-35.27-14.73C5.67 371.08 0 358.58 0 344.85V49.98C0 22.5 22.52 0 49.97 0zm332.98 230.74c-6.89 0-13.63.69-20.1 1.97-20.05 3.99-38.25 13.71-52.67 28.19-9.58 9.6-17.1 20.92-22.3 33.44a103.67 103.67 0 0 0-5.82 19.28c-1.28 6.45-1.96 13.16-1.96 20 0 20.36 5.92 40.23 17.28 57.18 11.24 16.81 27.64 30.17 46.32 37.91 17.11 7.06 35.79 9.36 54.13 6.71 8.93-1.29 17.65-3.72 25.92-7.32 3.54-1.53 7.04-3.31 10.4-5.24 3.39-2.14 7.91-1.61 10.69 1.44l36.86 40.61 30.3-27.78-38.46-41.99a8.395 8.395 0 0 1-1.43-10.13c1.97-3.45 3.78-7.05 5.37-10.75 1.55-3.62 2.94-7.41 4.09-11.26 1.37-4.62 2.46-9.41 3.17-14.29l.03-.26c.7-4.79 1.07-9.77 1.07-14.83 0-20.29-6-40.24-17.3-57.14-3.76-5.61-8.07-10.85-12.83-15.59-4.71-4.73-9.94-9-15.6-12.78-5.57-3.74-11.57-6.95-17.89-9.57-12.45-5.16-25.8-7.8-39.27-7.8zm43.2 38.04c4.36 2.93 8.36 6.2 11.88 9.72 3.53 3.56 6.78 7.5 9.58 11.68 8.67 12.86 13.26 27.89 13.26 43.44 0 5.2-.53 10.31-1.49 15.25-.99 5.03-2.49 9.9-4.43 14.51-1.95 4.75-4.39 9.3-7.21 13.5A76.555 76.555 0 0 1 438 388.7a77.33 77.33 0 0 1-11.85 9.75c-8.38 5.62-18.1 9.68-28.01 11.62-15.06 2.97-30.83 1.46-45-4.44-14.09-5.82-26.48-16.02-34.96-28.68-8.61-12.86-13.16-27.85-13.16-43.33 0-20.61 8.27-40.55 22.84-55.12 10.72-10.72 25.01-18.37 39.87-21.31 4.97-.98 10.07-1.5 15.22-1.5 15.45 0 30.3 4.55 43.2 13.09zM269.5 61.5c11.09 0 21.18 4.51 28.47 11.8 7.29 7.29 11.81 17.36 11.81 28.48 0 11.1-4.52 21.19-11.81 28.48-7.29 7.29-17.38 11.8-28.47 11.8-11.12 0-21.19-4.51-28.48-11.8-7.29-7.29-11.81-17.38-11.81-28.48 0-11.12 4.52-21.19 11.81-28.48 7.29-7.29 17.36-11.8 28.48-11.8zm12.28 27.99a17.33 17.33 0 0 0-12.28-5.08c-4.81 0-9.16 1.95-12.3 5.08a17.362 17.362 0 0 0-5.07 12.29c0 4.8 1.94 9.16 5.07 12.29 3.14 3.14 7.49 5.08 12.3 5.08 4.8 0 9.15-1.94 12.28-5.08 3.14-3.13 5.08-7.49 5.08-12.29 0-4.8-1.94-9.15-5.08-12.29z"/></svg>